<svg width="50" height="50" viewBox="0 0 50 50" fill="none" xmlns="http://www.w3.org/2000/svg">
<circle cx="25" cy="25" r="25" fill="#020618"/>
<g clip-path="url(#clip0_20583_3603)">
<path d="M36.9531 17.0313V20.9299C36.9531 21.7664 36.7739 22.5933 36.4277 23.3548C36.0815 24.1163 35.5763 24.7949 34.946 25.3449L27.5963 31.7578C26.1055 33.0586 23.886 33.0684 22.3838 31.7808L15.5618 25.9334C14.92 25.3833 14.4049 24.7009 14.0517 23.933C13.6985 23.1651 13.5156 22.3298 13.5156 21.4846V17.0313C13.5156 13.7953 16.1389 11.172 19.375 11.172H31.0937C34.3298 11.172 36.9531 13.7953 36.9531 17.0313Z" stroke="white" stroke-width="2.49999" stroke-miterlimit="10" stroke-linecap="round" stroke-linejoin="round"/>
<path d="M25 37.2461V38.8281" stroke="white" stroke-width="2.49999" stroke-miterlimit="10" stroke-linecap="round" stroke-linejoin="round"/>
<path d="M29.2188 35.3125V36.9531" stroke="white" stroke-width="2.49999" stroke-miterlimit="10" stroke-linecap="round" stroke-linejoin="round"/>
<path d="M33.0273 31.9727V33.6133" stroke="white" stroke-width="2.49999" stroke-miterlimit="10" stroke-linecap="round" stroke-linejoin="round"/>
<path d="M36.9531 28.457V30.0977" stroke="white" stroke-width="2.49999" stroke-miterlimit="10" stroke-linecap="round" stroke-linejoin="round"/>
<path d="M20.7812 35.3125V36.9531" stroke="white" stroke-width="2.49999" stroke-miterlimit="10" stroke-linecap="round" stroke-linejoin="round"/>
<path d="M16.9727 31.9727V33.6133" stroke="white" stroke-width="2.49999" stroke-miterlimit="10" stroke-linecap="round" stroke-linejoin="round"/>
<path d="M13.0469 28.457V30.0977" stroke="white" stroke-width="2.49999" stroke-miterlimit="10" stroke-linecap="round" stroke-linejoin="round"/>
<path d="M24.1374 16.7455L23.5609 17.9098C23.4916 18.0494 23.3895 18.17 23.2634 18.2614C23.1372 18.3527 22.9908 18.4121 22.8366 18.4343L21.5473 18.621C20.7583 18.7353 20.4433 19.7017 21.0142 20.2564L21.9471 21.1627C22.0587 21.271 22.1423 21.4049 22.1905 21.5528C22.2387 21.7007 22.2501 21.8581 22.2238 22.0114L22.0036 23.2911C21.8687 24.0743 22.6936 24.6716 23.3993 24.3018L24.5524 23.6976C24.6905 23.6252 24.8441 23.5875 25 23.5875C25.1559 23.5875 25.3095 23.6252 25.4476 23.6976L26.6007 24.3018C27.3065 24.6716 28.1313 24.0743 27.9964 23.2911L27.7763 22.0114C27.7499 21.8581 27.7613 21.7007 27.8095 21.5528C27.8577 21.4049 27.9413 21.271 28.0529 21.1627L28.9858 20.2564C29.5567 19.7017 29.2417 18.7353 28.4527 18.621L27.1635 18.4343C27.0093 18.4121 26.8628 18.3527 26.7367 18.2613C26.6105 18.17 26.5084 18.0494 26.4391 17.9098L25.8626 16.7455C25.5098 16.0328 24.4902 16.0328 24.1374 16.7455Z" stroke="white" stroke-width="2.49999" stroke-miterlimit="10" stroke-linecap="round" stroke-linejoin="round"/>
</g>
<defs>
<clipPath id="clip0_20583_3603">
<rect width="30" height="30" fill="white" transform="translate(10 10)"/>
</clipPath>
</defs>
</svg>
