<svg width="86" height="86" viewBox="0 0 86 86" fill="none" xmlns="http://www.w3.org/2000/svg">
<path d="M0 43C0 19.2518 19.2518 0 43 0C66.7482 0 86 19.2518 86 43C86 66.7482 66.7482 86 43 86C19.2518 86 0 66.7482 0 43Z" fill="white"/>
<path d="M43 0.5C66.4721 0.5 85.5 19.5279 85.5 43C85.5 66.4721 66.4721 85.5 43 85.5C19.5279 85.5 0.5 66.4721 0.5 43C0.5 19.5279 19.5279 0.5 43 0.5Z" stroke="#020618" stroke-opacity="0.2"/>
<path d="M66.9253 51.5243C65.5469 49.5946 63.238 48.9973 61.1561 50.1329L51.9057 55.1786L52.0034 54.6901C52.0034 53.3949 50.9535 52.345 49.6584 52.345H42.5547C42.5547 52.345 41.4424 49.9191 40.5445 49.2919C35.8223 44.9714 26.8945 49.6503 26.8945 49.6503H23.6673V58.5527H28.7986L46.8604 64.2667L66.9532 51.5633L66.9253 51.5243ZM63.4356 28.5046H39.5424C37.9757 24.5048 34.0784 21.6648 29.5299 21.6648C23.6033 21.6648 18.7817 26.4863 18.7817 32.413C18.7817 38.3396 23.6033 43.1612 29.5299 43.1612C34.0784 43.1612 37.9757 40.3212 39.5424 36.3214H42.8186L45.3591 34.3672L48.2904 36.3214L51.4172 34.3672L54.6416 36.3214L57.6706 33.3901L61.1882 36.3214H63.4356L66.9532 32.413L63.4356 28.5046Z" fill="white"/>
<path d="M18 47.7534H23.6672V60.4558H18V47.7534Z" fill="#1D293D"/>
<path d="M29.53 39.7413C33.5773 39.7413 36.8583 36.4603 36.8583 32.413C36.8583 28.3657 33.5773 25.0847 29.53 25.0847C25.4827 25.0847 22.2017 28.3657 22.2017 32.413C22.2017 36.4603 25.4827 39.7413 29.53 39.7413Z" fill="#020618" fill-opacity="0.2"/>
<path d="M29.5299 43.8939C31.8819 43.8939 34.1445 43.1845 36.0728 41.8427C37.817 40.6289 39.1773 38.9806 40.0305 37.0542H43.0678L45.3896 35.2682L48.2777 37.1936L51.4231 35.2277L54.7451 37.241L57.7071 34.3745L60.9228 37.0542H63.7619L67.939 32.4129L63.7619 27.7716H40.0305C39.1774 25.8452 37.817 24.1969 36.0728 22.9831C34.1445 21.6413 31.8819 20.9319 29.5299 20.9319C23.1992 20.9319 18.0489 26.0822 18.0489 32.4129C18.0489 38.7436 23.1992 43.8939 29.5299 43.8939ZM29.5299 22.3975C33.617 22.3975 37.3665 24.9591 38.8599 28.7717L39.0422 29.2373H63.1092L65.9672 32.4129L63.1092 35.5885H61.4536L57.6341 32.4056L54.538 35.4017L51.4111 33.5066L48.3031 35.4491L45.3285 33.466L42.5693 35.5885H39.0422L38.8599 36.0541C37.3665 39.8668 33.617 42.4283 29.5299 42.4283C24.0074 42.4283 19.5145 37.9354 19.5145 32.4129C19.5145 26.8904 24.0074 22.3975 29.5299 22.3975ZM67.5215 51.0982C65.9006 48.8289 63.2015 48.1823 60.8051 49.4895L52.6437 53.9412C52.3083 52.6048 51.0973 51.6121 49.6583 51.6121H43.0164C42.6247 50.8209 41.8081 49.314 41.0067 48.7218C36.2662 44.436 28.0272 48.2663 26.7188 48.9175H24.4001V47.0207H18V48.4863H22.9344V59.7231H18V61.1887H24.4001V59.2854H28.6854L46.964 65.0681L67.9999 51.7684L67.5215 51.0982ZM46.7567 63.4652L29.0196 57.854L28.9118 57.8198H24.4001V50.3832H27.0748L27.2346 50.2995C27.3192 50.2552 35.7563 45.9046 40.0497 49.8327L40.0853 49.8652L40.1248 49.8929C40.63 50.2456 41.4603 51.7179 41.8885 52.6507L42.0846 53.0779H49.6583C50.5473 53.0779 51.2705 53.8011 51.2705 54.6901C51.2705 55.5791 50.5473 56.3023 49.6583 56.3023H39.6918V57.768H49.6583C51.0228 57.768 52.1822 56.8751 52.5845 55.6432L61.507 50.7763C63.033 49.944 64.6754 50.1948 65.8576 51.3889L46.7567 63.4652ZM26.3543 30.8495C26.3543 29.5834 27.3843 28.5533 28.6505 28.5533H28.797V27.1365H30.2627V28.5533H31.9726V30.019H28.6505C28.1925 30.019 27.8199 30.3916 27.8199 30.8495C27.8199 31.3075 28.1925 31.6801 28.6505 31.6801H30.4093C31.6754 31.6801 32.7055 32.7101 32.7055 33.9763C32.7055 35.2424 31.6754 36.2725 30.4093 36.2725H30.2627V37.6893H28.797V36.2725H27.0871V34.8068H30.4093C30.8672 34.8068 31.2398 34.4343 31.2398 33.9763C31.2398 33.5183 30.8672 33.1457 30.4093 33.1457H28.6505C27.3843 33.1457 26.3543 32.1157 26.3543 30.8495ZM29.5299 40.4741C33.9747 40.4741 37.591 36.8578 37.591 32.4129C37.591 27.968 33.9747 24.3518 29.5299 24.3518C25.085 24.3518 21.4687 27.968 21.4687 32.4129C21.4687 36.8578 25.085 40.4741 29.5299 40.4741ZM29.5299 25.8174C33.1667 25.8174 36.1254 28.7761 36.1254 32.4129C36.1254 36.0497 33.1667 39.0084 29.5299 39.0084C25.8931 39.0084 22.9344 36.0497 22.9344 32.4129C22.9344 28.7761 25.8931 25.8174 29.5299 25.8174Z" fill="#1D293D"/>
</svg>
