<svg xmlns="http://www.w3.org/2000/svg" width="32" height="32" fill="none" viewBox="0 0 32 32"><g clip-path="url(#a)"><mask id="b" width="32" height="32" x="0" y="0" maskUnits="userSpaceOnUse" style="mask-type:luminance"><path fill="#fff" d="M30.9 12.965H15.932v6.12h8.601a7.2 7.2 0 0 1-.903 2.495 7.3 7.3 0 0 1-1.825 2.084c-1.977 1.546-4.282 1.862-5.883 1.862-4.044 0-7.5-2.667-8.837-6.29-.054-.132-.09-.268-.133-.402a9.52 9.52 0 0 1 .036-5.938c1.258-3.768 4.791-6.582 8.937-6.582a9.3 9.3 0 0 1 2.398.304 8.6 8.6 0 0 1 3.725 2.09L26.6 4.16C23.83 1.57 20.222 0 15.917 0a15.87 15.87 0 0 0-9.223 2.943 15.9 15.9 0 0 0-5.012 5.84A15.74 15.74 0 0 0 0 15.917c0 2.576.596 4.997 1.683 7.14v.014a16.1 16.1 0 0 0 4.868 5.725 15.82 15.82 0 0 0 9.366 3.04c2.522 0 4.758-.463 6.73-1.333a13.8 13.8 0 0 0 3.822-2.497c1.508-1.39 2.688-3.108 3.494-5.086.806-1.977 1.237-4.213 1.237-6.637 0-1.13-.111-2.276-.3-3.318"/></mask><g mask="url(#b)"><g filter="url(#c)"><path fill="url(#d)" d="M-.23 16.025c.017 2.536.725 5.152 1.797 7.264v.014C2.34 24.837 3.4 26.05 4.605 27.25l7.281-2.71c-1.377-.715-1.587-1.152-2.575-1.95a9.4 9.4 0 0 1-2.23-3.628h-.018l.019-.015c-.309-.923-.339-1.903-.35-2.92z"/></g><g filter="url(#e)"><path fill="url(#f)" d="M15.933-.116c-.72 2.58-.445 5.088 0 6.547.83 0 1.631.102 2.39.303a8.6 8.6 0 0 1 3.725 2.09l4.668-4.664C23.951 1.573 20.623-.112 15.932-.116"/></g><g filter="url(#g)"><path fill="url(#h)" d="M15.917-.136c-3.53 0-6.79 1.122-9.46 3.019a16.4 16.4 0 0 0-2.712 2.422c-.212 2.032 1.59 4.53 5.156 4.509 1.731-2.054 4.29-3.383 7.14-3.383h.008l-.117-6.567z"/></g><g filter="url(#i)"><path fill="url(#j)" d="m27.568 16.76-3.151 2.209a7.2 7.2 0 0 1-.904 2.495 7.3 7.3 0 0 1-1.825 2.084c-1.973 1.543-4.271 1.86-5.872 1.862-1.654 2.875-1.944 4.315.116 6.635 2.55-.002 4.81-.472 6.804-1.351a14 14 0 0 0 3.875-2.53c1.527-1.409 2.724-3.15 3.54-5.155.817-2.003 1.254-4.27 1.254-6.726z"/></g><g filter="url(#k)"><path fill="#3086ff" d="M15.7 12.733v6.585h15.158c.134-.902.575-2.07.575-3.035 0-1.13-.111-2.508-.3-3.55z"/></g><g filter="url(#l)"><path fill="url(#m)" d="M3.818 5.073A16 16 0 0 0 1.45 8.55C.363 10.712-.233 13.341-.233 15.917q.001.055.004.108c.481.942 6.65.762 6.96 0l-.004-.105c0-1.057.175-1.836.494-2.791A9.8 9.8 0 0 1 9.018 9.93c.179-.232.655-.732.794-1.032.053-.114-.096-.178-.105-.219-.009-.045-.209-.008-.254-.042-.142-.106-.423-.162-.594-.211-.365-.106-.97-.339-1.307-.58-1.063-.762-2.721-1.673-3.734-2.773"/></g><g filter="url(#n)"><path fill="url(#o)" d="M7.575 8.684c2.465 1.523 3.173-.77 4.812-1.486l-2.85-6.032a16 16 0 0 0-6.545 5.18z"/></g><g filter="url(#p)"><path fill="url(#q)" d="M8.578 24.072c-3.308 1.219-3.826 1.263-4.13 3.355q.873.871 1.87 1.601c1.784 1.305 5.213 3.041 9.6 3.041h.014v-6.775h-.01c-1.642 0-2.955-.44-4.3-1.206-.332-.189-.934.318-1.24.092-.422-.313-1.438.269-1.804-.108"/></g><g filter="url(#r)" opacity=".5"><path fill="url(#s)" d="M13.995 25.08v6.872c.614.073 1.252.117 1.922.117q1.007-.001 1.953-.1v-6.842c-.707.123-1.374.167-1.948.167a9 9 0 0 1-1.927-.214"/></g></g></g><defs><filter id="c" width="12.868" height="11.976" x="-.606" y="15.649" color-interpolation-filters="sRGB" filterUnits="userSpaceOnUse"><feFlood flood-opacity="0" result="BackgroundImageFix"/><feBlend in="SourceGraphic" in2="BackgroundImageFix" result="shape"/><feGaussianBlur result="effect1_foregroundBlur_20094_627" stdDeviation=".188"/></filter><filter id="e" width="11.978" height="9.692" x="15.114" y="-.492" color-interpolation-filters="sRGB" filterUnits="userSpaceOnUse"><feFlood flood-opacity="0" result="BackgroundImageFix"/><feBlend in="SourceGraphic" in2="BackgroundImageFix" result="shape"/><feGaussianBlur result="effect1_foregroundBlur_20094_627" stdDeviation=".188"/></filter><filter id="g" width="13.072" height="10.703" x="3.352" y="-.512" color-interpolation-filters="sRGB" filterUnits="userSpaceOnUse"><feFlood flood-opacity="0" result="BackgroundImageFix"/><feBlend in="SourceGraphic" in2="BackgroundImageFix" result="shape"/><feGaussianBlur result="effect1_foregroundBlur_20094_627" stdDeviation=".188"/></filter><filter id="i" width="17.676" height="16.514" x="14.104" y="15.907" color-interpolation-filters="sRGB" filterUnits="userSpaceOnUse"><feFlood flood-opacity="0" result="BackgroundImageFix"/><feBlend in="SourceGraphic" in2="BackgroundImageFix" result="shape"/><feGaussianBlur result="effect1_foregroundBlur_20094_627" stdDeviation=".188"/></filter><filter id="k" width="16.485" height="7.337" x="15.324" y="12.357" color-interpolation-filters="sRGB" filterUnits="userSpaceOnUse"><feFlood flood-opacity="0" result="BackgroundImageFix"/><feBlend in="SourceGraphic" in2="BackgroundImageFix" result="shape"/><feGaussianBlur result="effect1_foregroundBlur_20094_627" stdDeviation=".188"/></filter><filter id="l" width="10.808" height="12.345" x="-.609" y="4.697" color-interpolation-filters="sRGB" filterUnits="userSpaceOnUse"><feFlood flood-opacity="0" result="BackgroundImageFix"/><feBlend in="SourceGraphic" in2="BackgroundImageFix" result="shape"/><feGaussianBlur result="effect1_foregroundBlur_20094_627" stdDeviation=".188"/></filter><filter id="n" width="14.683" height="13.318" x=".348" y="-1.478" color-interpolation-filters="sRGB" filterUnits="userSpaceOnUse"><feFlood flood-opacity="0" result="BackgroundImageFix"/><feBlend in="SourceGraphic" in2="BackgroundImageFix" result="shape"/><feGaussianBlur result="effect1_foregroundBlur_20094_627" stdDeviation="1.322"/></filter><filter id="p" width="12.237" height="8.776" x="4.071" y="23.669" color-interpolation-filters="sRGB" filterUnits="userSpaceOnUse"><feFlood flood-opacity="0" result="BackgroundImageFix"/><feBlend in="SourceGraphic" in2="BackgroundImageFix" result="shape"/><feGaussianBlur result="effect1_foregroundBlur_20094_627" stdDeviation=".188"/></filter><filter id="r" width="4.627" height="7.741" x="13.619" y="24.704" color-interpolation-filters="sRGB" filterUnits="userSpaceOnUse"><feFlood flood-opacity="0" result="BackgroundImageFix"/><feBlend in="SourceGraphic" in2="BackgroundImageFix" result="shape"/><feGaussianBlur result="effect1_foregroundBlur_20094_627" stdDeviation=".188"/></filter><radialGradient id="d" cx="0" cy="0" r="1" gradientTransform="matrix(-.64834 -15.8546 23.3104 -.95142 11.74 27.01)" gradientUnits="userSpaceOnUse"><stop offset=".142" stop-color="#1abd4d"/><stop offset=".248" stop-color="#6ec30d"/><stop offset=".312" stop-color="#8ac502"/><stop offset=".366" stop-color="#a2c600"/><stop offset=".446" stop-color="#c8c903"/><stop offset=".54" stop-color="#ebcb03"/><stop offset=".616" stop-color="#f7cd07"/><stop offset=".699" stop-color="#fdcd04"/><stop offset=".771" stop-color="#fdce05"/><stop offset=".861" stop-color="#ffce0a"/></radialGradient><radialGradient id="f" cx="0" cy="0" r="1" gradientTransform="matrix(11.0106 0 0 14.2062 26.28 8.487)" gradientUnits="userSpaceOnUse"><stop offset=".408" stop-color="#fb4e5a"/><stop offset="1" stop-color="#ff4540"/></radialGradient><radialGradient id="h" cx="0" cy="0" r="1" gradientTransform="matrix(-15.4266 8.53612 11.5944 20.9141 20.266 -2.193)" gradientUnits="userSpaceOnUse"><stop offset=".231" stop-color="#ff4541"/><stop offset=".312" stop-color="#ff4540"/><stop offset=".458" stop-color="#ff4640"/><stop offset=".54" stop-color="#ff473f"/><stop offset=".699" stop-color="#ff5138"/><stop offset=".771" stop-color="#ff5b33"/><stop offset=".861" stop-color="#ff6c29"/><stop offset="1" stop-color="#ff8c18"/></radialGradient><radialGradient id="j" cx="0" cy="0" r="1" gradientTransform="matrix(-27.9766 -36.4858 -13.4805 10.3171 16.162 29.984)" gradientUnits="userSpaceOnUse"><stop offset=".132" stop-color="#0cba65"/><stop offset=".21" stop-color="#0bb86d"/><stop offset=".297" stop-color="#09b479"/><stop offset=".396" stop-color="#08ad93"/><stop offset=".477" stop-color="#0aa6a9"/><stop offset=".568" stop-color="#0d9cc6"/><stop offset=".667" stop-color="#1893dd"/><stop offset=".769" stop-color="#258bf1"/><stop offset=".859" stop-color="#3086ff"/></radialGradient><radialGradient id="m" cx="0" cy="0" r="1" gradientTransform="matrix(-1.97984 17.0488 23.5952 2.73488 14.565 2.87)" gradientUnits="userSpaceOnUse"><stop offset=".366" stop-color="#ff4e3a"/><stop offset=".458" stop-color="#ff8a1b"/><stop offset=".54" stop-color="#ffa312"/><stop offset=".616" stop-color="#ffb60c"/><stop offset=".771" stop-color="#ffcd0a"/><stop offset=".861" stop-color="#fecf0a"/><stop offset=".915" stop-color="#fecf08"/><stop offset="1" stop-color="#fdcd01"/></radialGradient><radialGradient id="o" cx="0" cy="0" r="1" gradientTransform="matrix(-5.72276 6.32327 -17.8519 -16.1261 11.781 2.694)" gradientUnits="userSpaceOnUse"><stop offset=".316" stop-color="#ff4c3c"/><stop offset=".604" stop-color="#ff692c"/><stop offset=".727" stop-color="#ff7825"/><stop offset=".885" stop-color="#ff8d1b"/><stop offset="1" stop-color="#ff9f13"/></radialGradient><radialGradient id="q" cx="0" cy="0" r="1" gradientTransform="matrix(-15.4266 -8.53612 11.5944 -20.9141 20.267 34.029)" gradientUnits="userSpaceOnUse"><stop offset=".231" stop-color="#0fbc5f"/><stop offset=".312" stop-color="#0fbc5f"/><stop offset=".366" stop-color="#0fbc5e"/><stop offset=".458" stop-color="#0fbc5d"/><stop offset=".54" stop-color="#12bc58"/><stop offset=".699" stop-color="#28bf3c"/><stop offset=".771" stop-color="#38c02b"/><stop offset=".861" stop-color="#52c218"/><stop offset=".915" stop-color="#67c30f"/><stop offset="1" stop-color="#86c504"/></radialGradient><linearGradient id="s" x1="13.995" x2="17.87" y1="28.575" y2="28.575" gradientUnits="userSpaceOnUse"><stop stop-color="#0fbc5c"/><stop offset="1" stop-color="#0cba65"/></linearGradient><clipPath id="a"><path fill="#fff" d="M0 0h31.2v31.837H0z"/></clipPath></defs></svg>